<svg data-v-423bf9ae="" xmlns="http://www.w3.org/2000/svg" viewBox="0 0 366 90" class="iconLeft"><!----><!----><!----><g data-v-423bf9ae="" id="3064d3a4-db59-4b55-afce-b785a1c933d1" fill="#d81b60" transform="matrix(4.4117648915023615,0,0,4.4117648915023615,118.9380451317062,12.573530508778909)"><path d="M7.62 10.26L5.01 6.80C6.27 6.59 7.04 5.77 7.04 4.41C7.04 2.77 5.96 1.86 4.21 1.86L0.81 1.86L1.12 2.91L1.12 10.26L2.44 10.26L2.44 6.94L3.57 6.94L6.01 10.26ZM4.21 3.01C5.14 3.01 5.67 3.50 5.67 4.41C5.67 5.32 5.14 5.81 4.21 5.81L2.44 5.81L2.44 3.01ZM10.35 1.40C10.35 0.92 9.97 0.55 9.51 0.55C9.04 0.55 8.67 0.92 8.67 1.40C8.67 1.86 9.04 2.24 9.51 2.24C9.97 2.24 10.35 1.86 10.35 1.40ZM11.17 10.26L11.17 9.80L10.16 9.28L10.16 3.72L8.85 3.72L8.85 10.26ZM17.05 8.34C17.05 7.03 16.13 6.34 14.50 6.34C13.66 6.34 13.33 6.01 13.33 5.52C13.33 5.12 13.65 4.70 14.77 4.70C15.16 4.70 15.58 4.76 15.99 4.83L16.48 5.80L16.94 5.80L16.94 3.92C16.25 3.71 15.54 3.57 14.77 3.57C12.85 3.57 11.98 4.56 11.98 5.60C11.98 6.90 12.92 7.60 14.50 7.60C15.37 7.60 15.71 7.92 15.71 8.43C15.71 8.86 15.37 9.28 14.22 9.28C13.54 9.28 12.78 9.16 12.01 8.92L12.01 10.07C12.75 10.29 13.45 10.43 14.22 10.43C16.17 10.43 17.05 9.42 17.05 8.34ZM21.25 3.57C19.38 3.57 18.14 4.86 18.14 7C18.14 9.21 19.53 10.43 21.78 10.43C22.40 10.43 23.18 10.29 23.74 10.08L23.74 8.95C23.17 9.14 22.43 9.28 21.78 9.28C20.51 9.28 19.63 8.74 19.52 7.43L24.26 7.43C24.28 7.29 24.28 7.15 24.28 7C24.28 4.86 23.14 3.57 21.25 3.57ZM22.97 6.36L19.53 6.36C19.66 5.25 20.31 4.65 21.25 4.65C22.15 4.65 22.83 5.22 22.97 6.36ZM31.86 1.86L29.47 1.86L29.47 2.32L30.49 2.84L30.49 11.83C30.49 12.60 30.09 13.02 29.19 13.02C28.88 13.02 28.55 12.96 28.28 12.87L28.28 14.01C28.55 14.10 28.91 14.15 29.19 14.15C30.91 14.15 31.86 13.29 31.86 11.83ZM40.64 10.26L40.64 9.14C40.45 9.21 40.22 9.28 39.98 9.28C39.66 9.28 39.52 9.13 39.52 8.81L39.52 3.72L38.21 3.72L38.21 9.02C37.79 9.18 37.37 9.28 36.86 9.28C35.88 9.28 35.38 8.83 35.38 7.98L35.38 3.72L34.06 3.72L34.06 7.98C34.06 9.52 35.13 10.43 36.86 10.43C37.49 10.43 38.07 10.28 38.58 10.04C38.84 10.29 39.23 10.43 39.65 10.43C40.00 10.43 40.38 10.35 40.64 10.26ZM48.12 10.26L48.12 9.14C47.92 9.21 47.70 9.28 47.46 9.28C47.14 9.28 47.00 9.13 47.00 8.81L47.00 6.02C47.00 4.44 45.88 3.57 44.07 3.57C43.48 3.57 42.76 3.70 42.10 3.88L42.10 5.80L42.55 5.80L43.06 4.82C43.41 4.75 43.78 4.70 44.07 4.70C45.15 4.70 45.68 5.17 45.68 6.02L45.68 6.40L43.92 6.40C42.28 6.40 41.43 7.24 41.43 8.34C41.43 9.53 42.39 10.43 44.14 10.43C44.81 10.43 45.47 10.25 46.00 9.98C46.24 10.26 46.66 10.43 47.12 10.43C47.47 10.43 47.85 10.35 48.12 10.26ZM45.68 9.02C45.22 9.24 44.67 9.38 44.14 9.38C43.22 9.38 42.76 8.99 42.76 8.34C42.76 7.78 43.11 7.43 43.92 7.43L45.68 7.43ZM55.99 10.26L55.99 9.80L54.96 9.28L54.96 6.02C54.96 4.47 53.90 3.57 52.16 3.57C51.31 3.57 50.27 3.74 49.42 3.99L49.20 4.05L49.50 5.08L49.50 10.26L50.82 10.26L50.82 4.89C51.24 4.77 51.72 4.70 52.16 4.70C53.14 4.70 53.65 5.15 53.65 6.02L53.65 10.26Z"></path></g><!----><g data-v-423bf9ae="" id="cbccb08b-72a8-41d0-a985-d2cf1e9a9d91" transform="matrix(1.025115346853947,0,0,1.025115346853947,0.7442137275274945,0)" stroke="none" fill="#d81b60"><path d="M60.369 31.692c-1.642 1.641-3.855 2.585-6.082 2.585-1.959 0-3.774-.729-5.108-2.051L29.016 12.051l-1.826 1.825 6.965 6.964L11.58 43.415a8.104 8.104 0 0 0-1.6 2.287 8.251 8.251 0 0 0-.759 4.227C3.261 43.908-.01 36.266 0 28.4c.01-7.518 3.005-14.636 8.432-20.031C13.856 2.975 21.056 0 28.708 0c4.523 0 8.831 1.016 12.811 3.005 1.62.8 3.199 1.785 4.687 2.943l.708.554 13.999 13.99c2.923 2.944 2.687 7.968-.544 11.2z"></path><path d="M44.461 31.148L21.888 53.723a5.651 5.651 0 0 1-3.989 1.631c-1.611 0-3.149-.646-4.318-1.815-1.169-1.168-1.814-2.696-1.814-4.318 0-1.517.572-2.933 1.63-3.989L35.97 22.657l8.491 8.491z"></path><path d="M100 28.4c.009 7.918-3.303 15.6-9.334 21.641A12743.22 12743.22 0 0 0 78.717 61.98L54.328 86.164c-1.056 1.056-2.472 1.631-3.99 1.631a6.052 6.052 0 0 1-4.318-1.816 6.106 6.106 0 0 1-1.805-4.215 5.606 5.606 0 0 1 1.621-4.093l23.711-23.722-2.213-2.216-23.713 23.725a5.65 5.65 0 0 1-3.99 1.629c-1.61 0-3.148-.646-4.319-1.813-1.168-1.17-1.814-2.698-1.814-4.318 0-1.519.574-2.935 1.63-3.991L58.84 43.241l-2.521-2.522-23.725 23.712c-1.056 1.057-2.472 1.631-3.989 1.631-1.62 0-3.16-.646-4.319-1.813a6.112 6.112 0 0 1-1.805-4.216 5.568 5.568 0 0 1 1.62-4.094l22.574-22.573.687.687c1.826 1.816 4.287 2.811 6.923 2.811 2.883 0 5.766-1.221 7.909-3.343 4.226-4.247 4.471-10.903.533-14.841L51.733 7.683C57.065 2.72 63.977.001 71.292.001c7.64 0 14.841 2.975 20.276 8.37C96.995 13.764 99.991 20.882 100 28.4z"></path></g><!----></svg>
